<svg xmlns="http://www.w3.org/2000/svg" xmlns:xlink="http://www.w3.org/1999/xlink" width="248.208" height="316.532" viewBox="0 0 248.208 316.532">
  <defs>
    <linearGradient id="linear-gradient" x1="0.505" y1="1.007" x2="0.505" gradientUnits="objectBoundingBox">
      <stop offset="0" stop-color="gray" stop-opacity="0.251"/>
      <stop offset="0.54" stop-color="gray" stop-opacity="0.122"/>
      <stop offset="1" stop-color="gray" stop-opacity="0.102"/>
    </linearGradient>
  </defs>
  <g id="Group_1" data-name="Group 1" transform="translate(-128.759 17.098)">
    <rect id="Rectangle_77" data-name="Rectangle 77" width="3.785" height="18.307" rx="1.276" transform="translate(287.945 23.197) rotate(-11)" fill="#3f3d56"/>
    <rect id="Rectangle_78" data-name="Rectangle 78" width="4.265" height="31.863" rx="1.276" transform="translate(294.207 56.13) rotate(-11)" fill="#3f3d56"/>
    <rect id="Rectangle_79" data-name="Rectangle 79" width="4.059" height="32.137" rx="1.276" transform="translate(302.481 98.339) rotate(-11)" fill="#3f3d56"/>
    <path id="Path_190" data-name="Path 190" d="M0,0A.7.7,0,0,0,.83.107,2.943,2.943,0,0,1,0,0Z" transform="translate(269.32 191.355) rotate(-11)" fill="url(#linear-gradient)"/>
    <path id="Path_192" data-name="Path 192" d="M43.471,0l-.819,4.463L42.02,7.877l-1.15,6.245L29.721,21.927s-1.005-.86-2.663-2.216C22.489,15.948,12.885,8.288,5.834,4.175A23.753,23.753,0,0,0,0,1.487Z" transform="translate(259.796 205.712) rotate(-11)" fill="#f8d4d4"/>
    <path id="Path_194" data-name="Path 194" d="M44.318,12.282s13,2.231,13.761-3.32S51.388.41,45.072.037.849,2.268.849,2.268s-6.686,8.918,17.462,10.41Z" transform="translate(249.226 198.636) rotate(-11)" fill="#3f3d56"/>
    <rect id="Rectangle_82" data-name="Rectangle 82" width="68.005" height="80.639" transform="translate(221.269 29.959) rotate(-11)" fill="#2f2e41"/>
    <rect id="Rectangle_83" data-name="Rectangle 83" width="68.005" height="80.639" transform="translate(221.339 30.318) rotate(-11)" opacity="0.1"/>
    <path id="Path_198" data-name="Path 198" d="M25.9,6.7a10.913,10.913,0,0,0-4.142,2.932C14.9,16.42,5.088,32.343,5.088,32.343-7.462,17.39,6.426,5.582,12.345,1.523,13.785.541,14.751,0,14.751,0Z" transform="translate(142.668 179.037) rotate(-11)" fill="#f8d4d4"/>
    <path id="Path_199" data-name="Path 199" d="M36.043,0s3.346,23.41,14.865,28.984S36.043,44.976,36.043,44.976L0,31.588S20.44,24.9,16.35,5.2Z" transform="translate(236.89 52.85) rotate(-11)" fill="#f8d4d4"/>
    <path id="Path_200" data-name="Path 200" d="M43.508,0l-.815,4.448L42.03,7.875l-1.15,6.245-11.149,7.8s-1.005-.853-2.663-2.208C22.5,15.947,12.9,8.286,5.834,4.174A23.6,23.6,0,0,0,0,1.486Z" transform="translate(218.498 199.899) rotate(-11)" fill="#f8d4d4"/>
    <path id="Path_202" data-name="Path 202" d="M43.03,14.445S54.7,14.527,55.4,8.96,49.041.408,43.03.035.5,2.439.5,2.439s-5.181,10.515,17.79,12Z" transform="translate(207.79 192.853) rotate(-11)" fill="#2f2e41"/>
    <path id="Path_204" data-name="Path 204" d="M89.962,101.836c-.51-.251-1.021-.51-1.523-.761l-1.371-1.729-17.98-22.8v.4c-.122,3.808-1.416,33.98-11.514,36.767-10.776,2.97-23.775,3.716-29.7-16.35S11.119,33.446,0,30.842L16.54,17.279s10.951,12.809,15.413,25.07c-.167-.761-7.73-36.1-1.523-42.349H84.694s8.377,23.859,14.119,35.678c4.47,9.177,11.179,30.873,15.5,45.555C118.588,95.728,103.563,108.53,89.962,101.836Z" transform="translate(242.03 186.268) rotate(-11)" fill="#3f3d56"/>
    <path id="Path_205" data-name="Path 205" d="M60.518,52.029C52.141,56.986,15.366,54.965,3.4,54.161l-3.26-.236c-.35,0,.053-.2.053-.2l.335-3.374L9.449,27.69,57.2,0c-.968,2.917-1.287,7.38-1.211,12.489C56.208,28.908,60.518,52.029,60.518,52.029Z" transform="translate(260.759 136.409) rotate(-11)" opacity="0.1"/>
    <path id="Path_206" data-name="Path 206" d="M60.916,52.005C52.539,56.963,15.764,54.941,3.8,54.138l-3.26-.229L0,53.863l.594-.152L3.53,52.95,9.843,27.682,57.591,0c-.967,2.917-1.287,7.38-1.211,12.489C56.605,28.893,60.916,52.005,60.916,52.005Z" transform="translate(260.16 135.409) rotate(-11)" fill="#d3dbf0"/>
    <path id="Path_208" data-name="Path 208" d="M2.406,0,13.555,6.686A10.914,10.914,0,0,0,9.413,9.618C8.484,6.907,2.653,3.122,0,1.508,1.439.541,2.406,0,2.406,0Z" transform="translate(154.789 176.698) rotate(-11)" opacity="0.1"/>
    <path id="Path_209" data-name="Path 209" d="M.761.107A.662.662,0,0,1,0,0,2.642,2.642,0,0,0,.761.107Z" transform="translate(268.311 189.076) rotate(-11)" opacity="0.1"/>
    <path id="Path_210" data-name="Path 210" d="M135.295,56.833s-10.037,1.112-17.1-6.321c0,0-29.7,8.552-39.76,27.872S0,135.614,0,135.614s11.9,6.686,10.776,10.029L55.744,119.63s15.992-11.514,20.432-14.119,28.992-18.581,34.193,24.895,0,38.275,0,38.275,7.433,2.6,18.208-18.208,44.215-25.641,44.215-25.641l1.858-21.917s6.633-14.53,1.523-20.561a12.946,12.946,0,0,1-2.978-6.29c-.845-5.567,0-14.842,11.834-22.549,18.208-11.9,25.268-21.551,25.268-21.551s.373-7.067-10.776-10.41S143.043,0,143.043,0L141.52,6.321l35.77,25.245S159.454,46.035,145.3,45.684C145.3,45.684,147.928,56.46,135.295,56.833Z" transform="translate(128.76 43.985) rotate(-11)" fill="#b5c2ea"/>
    <path id="Path_211" data-name="Path 211" d="M22.2,9.081A72.58,72.58,0,0,1,20.143,0L.449,5.2A21.591,21.591,0,0,1,0,16.565,21.179,21.179,0,0,0,22.2,9.078Z" transform="translate(252.344 50.975) rotate(-11)" opacity="0.1"/>
    <ellipse id="Ellipse_10" data-name="Ellipse 10" cx="21.179" cy="21.179" rx="21.179" ry="21.179" transform="translate(232.292 28.197) rotate(-11)" fill="#f8d4d4"/>
    <path id="Path_213" data-name="Path 213" d="M0,0S12.261,24.156,8.544,31.581" transform="translate(312.28 207.976) rotate(-11)" opacity="0.1"/>
    <path id="Path_221" data-name="Path 221" d="M57.637.16C63.515.83,69.1,3.35,74.886,4.729a8.56,8.56,0,0,0,4.463.167c2.246-.693,4.074-3.046,6.4-2.978,1.434.046,2.7,1.021,3.884,1.957a47.776,47.776,0,0,1,5.331,4.752c3.99,4.333,6.465,10.167,10.105,14.881s8.831,10.242,14,8.08C115.556,45.3,104.585,53.871,92.119,54.724c-4.973.341-10.068-.693-14.881.761a12.894,12.894,0,0,1-3.755.914c-2.772,0-5-2.543-6.732-5.018C62.7,45.563,59.494,38.96,54.932,33.652c-1.523-1.759-3.282-3.427-5.414-3.746s-4.089.7-5.985,1.683c-3.13,1.622-6.328,3.3-8.757,6.092S30.815,44.6,31.82,48.343c.541,2.026,1.775,3.854,1.8,5.97.046,3.381-2.936,5.849-3.526,9.138a34.266,34.266,0,0,0-.145,4.158c-.259,4.506-3.209,8.193-6.282,11.034-1.2,1.1-2.526,2.285-2.879,3.983-.236,1.165,0,2.39-.152,3.572-.449,2.924-3.366,4.409-5.948,4.79a17.157,17.157,0,0,1-8.925-1.058c3.61-1.707,5.834-6.564,5-10.913-1.15-6.032-7.212-10.365-6.691-16.5a19.119,19.119,0,0,1,1.676-5.429A49.745,49.745,0,0,0,8.6,46.8a17.334,17.334,0,0,0-.175-8.2c-.761-2.361-2.353-4.241-3.7-6.237A35.466,35.466,0,0,1,.441,23.578a6.177,6.177,0,0,1-.41-2.909A6,6,0,0,1,1.9,17.661c3.313-3.482,6.854-7.1,11.294-8.1A25.42,25.42,0,0,1,19.6,9.322a75.681,75.681,0,0,0,11.141-.472c3.046-.358,8.193-.312,10.776-2.285,2.406-1.844,3.762-4.158,6.724-5.331A19.8,19.8,0,0,1,57.641.16Z" transform="translate(202.236 5.622) rotate(-11)" fill="#2f2e41"/>
  </g>
</svg>
